<svg width="28" height="28" viewBox="0 0 28 28" fill="none" xmlns="http://www.w3.org/2000/svg">
<path fill-rule="evenodd" clip-rule="evenodd" d="M21.7143 9.33727C21.4088 7.82571 20.6676 6.42459 19.5667 5.31764C18.0907 3.83368 16.0889 3 14.0015 3C11.9142 3 9.91232 3.83368 8.43634 5.31764C7.33568 6.42427 6.59469 7.82492 6.28903 9.33599C4.79059 9.64443 3.40184 10.3882 2.30411 11.4919C0.82881 12.9752 0 14.9869 0 17.0846C0 19.1823 0.82881 21.194 2.30411 22.6773C3.77939 24.1606 5.78032 24.9939 7.8667 24.9939H12.3447V25C12.8261 25 13.2879 24.8077 13.6284 24.4655C13.9688 24.1232 14.1601 23.6588 14.1601 23.1748C14.1601 22.6907 13.9688 22.2264 13.6284 21.8841C13.2879 21.5418 12.8261 21.3496 12.3447 21.3496H7.8667C6.74246 21.3496 5.66427 20.9006 4.86932 20.1012C4.07436 19.302 3.62776 18.218 3.62776 17.0877C3.62776 15.9574 4.07436 14.8733 4.86932 14.0741C5.66427 13.2748 6.74246 12.8258 7.8667 12.8258C8.34816 12.8258 8.80992 12.6335 9.15037 12.2912C9.18304 12.2583 9.21432 12.2244 9.24421 12.1894C9.57593 11.8485 9.76197 11.3904 9.76197 10.9129C9.76197 9.78246 10.2086 8.69827 11.0037 7.89889C11.7988 7.09952 12.8771 6.65044 14.0015 6.65044C15.126 6.65044 16.2043 7.09952 16.9993 7.89889C17.7944 8.69827 18.2411 9.78246 18.2411 10.9129C18.2411 11.3659 18.4084 11.8014 18.7089 12.136C18.7517 12.19 18.7975 12.2419 18.8466 12.2912C19.187 12.6335 19.6488 12.8258 20.1303 12.8258C20.968 12.8258 21.787 13.0755 22.4836 13.5435C23.1803 14.0115 23.7232 14.6766 24.0438 15.4548C24.3644 16.233 24.4482 17.0894 24.2847 17.9155C24.1214 18.7416 23.718 19.5005 23.1256 20.0961C22.5331 20.6917 21.7783 21.0973 20.9566 21.2616C20.135 21.426 19.2832 21.3416 18.5093 21.0193C17.7353 20.697 17.0736 20.1511 16.6083 19.4507C16.1428 18.7503 15.8944 17.9269 15.8944 17.0846C15.8944 16.6006 15.7031 16.1362 15.3627 15.7939C15.0222 15.4517 14.5604 15.2594 14.079 15.2594C13.5975 15.2594 13.1357 15.4517 12.7952 15.7939C12.4548 16.1362 12.2636 16.6006 12.2636 17.0846C12.2667 19.1813 13.0966 21.1912 14.5712 22.6738C16.0458 24.1564 18.0449 24.9908 20.1303 24.9939V25C21.1637 25 22.1871 24.7953 23.1419 24.3977C24.0967 24 24.9642 23.4173 25.6951 22.6826C26.4258 21.9479 27.0054 21.0755 27.4009 20.1156C27.7964 19.1556 28 18.1267 28 17.0877C28 16.0486 27.7964 15.0197 27.4009 14.0597C27.0054 13.0998 26.4258 12.2275 25.6951 11.4928C24.9642 10.7581 24.0967 10.1752 23.1419 9.77762C22.6798 9.5852 22.2018 9.43798 21.7143 9.33727Z" fill="url(#paint0_linear_3587_5882)"/>
<defs>
<linearGradient id="paint0_linear_3587_5882" x1="2.96514" y1="23.8075" x2="28.6819" y2="1.43409" gradientUnits="userSpaceOnUse">
<stop stop-color="#3370FF"/>
<stop offset="1" stop-color="#5D81FF"/>
</linearGradient>
</defs>
</svg>
